<mxfile host="app.diagrams.net" agent="Mozilla/5.0 (Windows NT 10.0; Win64; x64) AppleWebKit/537.36 (KHTML, like Gecko) Chrome/134.0.0.0 Safari/537.36 OPR/119.0.0.0" version="27.1.6">
  <diagram name="Page-1" id="2lKSNLkg8uhMeyRZSCcj">
    <mxGraphModel dx="1060" dy="571" grid="1" gridSize="10" guides="1" tooltips="1" connect="1" arrows="1" fold="1" page="1" pageScale="1" pageWidth="850" pageHeight="1100" math="0" shadow="0">
      <root>
        <mxCell id="0" />
        <mxCell id="1" parent="0" />
        <mxCell id="k0CjIuHBRBUZPWsEeQh3-5" value="" style="edgeStyle=orthogonalEdgeStyle;rounded=0;orthogonalLoop=1;jettySize=auto;html=1;" edge="1" parent="1" source="k0CjIuHBRBUZPWsEeQh3-1" target="k0CjIuHBRBUZPWsEeQh3-3">
          <mxGeometry relative="1" as="geometry" />
        </mxCell>
        <mxCell id="k0CjIuHBRBUZPWsEeQh3-1" value="Main program" style="rounded=0;whiteSpace=wrap;html=1;" vertex="1" parent="1">
          <mxGeometry x="365" y="10" width="120" height="60" as="geometry" />
        </mxCell>
        <mxCell id="k0CjIuHBRBUZPWsEeQh3-7" value="" style="edgeStyle=orthogonalEdgeStyle;rounded=0;orthogonalLoop=1;jettySize=auto;html=1;" edge="1" parent="1" source="k0CjIuHBRBUZPWsEeQh3-2" target="k0CjIuHBRBUZPWsEeQh3-4">
          <mxGeometry relative="1" as="geometry" />
        </mxCell>
        <mxCell id="k0CjIuHBRBUZPWsEeQh3-2" value="Payroll calculator&amp;nbsp;" style="rounded=0;whiteSpace=wrap;html=1;" vertex="1" parent="1">
          <mxGeometry x="365" y="220" width="120" height="60" as="geometry" />
        </mxCell>
        <mxCell id="k0CjIuHBRBUZPWsEeQh3-6" value="" style="edgeStyle=orthogonalEdgeStyle;rounded=0;orthogonalLoop=1;jettySize=auto;html=1;" edge="1" parent="1" source="k0CjIuHBRBUZPWsEeQh3-3" target="k0CjIuHBRBUZPWsEeQh3-2">
          <mxGeometry relative="1" as="geometry" />
        </mxCell>
        <mxCell id="k0CjIuHBRBUZPWsEeQh3-3" value="List of employees&lt;div&gt;accessed by ID&lt;/div&gt;" style="rounded=0;whiteSpace=wrap;html=1;" vertex="1" parent="1">
          <mxGeometry x="365" y="110" width="120" height="60" as="geometry" />
        </mxCell>
        <mxCell id="k0CjIuHBRBUZPWsEeQh3-9" value="" style="edgeStyle=orthogonalEdgeStyle;rounded=0;orthogonalLoop=1;jettySize=auto;html=1;" edge="1" parent="1" source="k0CjIuHBRBUZPWsEeQh3-4" target="k0CjIuHBRBUZPWsEeQh3-8">
          <mxGeometry relative="1" as="geometry" />
        </mxCell>
        <mxCell id="k0CjIuHBRBUZPWsEeQh3-4" value="Tax Calculator&amp;nbsp;" style="rounded=0;whiteSpace=wrap;html=1;" vertex="1" parent="1">
          <mxGeometry x="365" y="330" width="120" height="60" as="geometry" />
        </mxCell>
        <mxCell id="k0CjIuHBRBUZPWsEeQh3-8" value="Inputs into spreadsheet" style="rounded=0;whiteSpace=wrap;html=1;" vertex="1" parent="1">
          <mxGeometry x="365" y="430" width="120" height="60" as="geometry" />
        </mxCell>
      </root>
    </mxGraphModel>
  </diagram>
</mxfile>
